<?xml version="1.0" encoding="UTF-8"?>
<svg width="752pt" height="752pt" version="1.1" viewBox="0 0 752 752" xmlns="http://www.w3.org/2000/svg">
 <g>
  <path d="m376 376c9.8125 0 19.227-3.8984 26.164-10.836s10.836-16.348 10.836-26.16-3.8984-19.223-10.836-26.164c-6.9375-6.9375-16.352-10.836-26.164-10.836s-19.223 3.8984-26.16 10.836c-6.9375 6.9414-10.836 16.352-10.836 26.164 0.011719 9.8086 3.9141 19.211 10.848 26.148 6.9375 6.9336 16.34 10.836 26.148 10.848zm20.836-44.398h-13.434v-13.438c6.2656 2.2383 11.199 7.1719 13.438 13.438zm-28.234-13.438v20.84c0 1.9609 0.78125 3.8438 2.168 5.2305s3.2695 2.168 5.2305 2.168h20.84c-2.5234 7.1836-8.5586 12.562-15.98 14.254-7.4219 1.6875-15.191-0.55469-20.574-5.9375-5.3828-5.3789-7.625-13.148-5.9375-20.574 1.6914-7.4219 7.0742-13.457 14.254-15.98z"/>
  <path d="m176.21 376v185.97c-8.5195 7.2109-13.84 17.5-14.801 28.621 0 1.9609 0.78125 3.8438 2.168 5.2305s3.2695 2.168 5.2305 2.168h414.38c1.9648 0 3.8477-0.78125 5.2344-2.168s2.168-3.2695 2.168-5.2305c-0.96094-11.121-6.2812-21.41-14.801-28.621v-185.97h14.801c2.9922 0 5.6875-1.8008 6.832-4.5664 1.1484-2.7656 0.51562-5.9453-1.6016-8.0625l-29.598-29.598v-0.003907c-1.3867-1.3867-3.2695-2.1641-5.2344-2.168h-20.719c-7.4023-27.453-21.582-52.613-41.23-73.168-19.652-20.559-44.148-35.852-71.242-44.484v-23.73c0-2.5273-1.2891-4.8789-3.4219-6.2383l-44.398-28.34 0.003906-0.003906c-2.2812-1.4531-5.168-1.5469-7.5391-0.25-2.3711 1.3008-3.8438 3.7852-3.8438 6.4883v44.242c-36.113 1.418-70.82 14.367-99.035 36.949-28.219 22.582-48.457 53.613-57.75 88.535h-20.809c-1.9609 0.003907-3.8438 0.78125-5.2305 2.168l-29.598 29.598v0.003906c-2.1172 2.1172-2.75 5.2969-1.6055 8.0625s3.8438 4.5664 6.8359 4.5664zm14.801 0h103.59v144.75c-14.922 1.6289-29.746 4.0781-44.398 7.3359v-55.883h22.199c1.9609 0 3.8438-0.78125 5.2305-2.168 1.3906-1.3906 2.168-3.2695 2.168-5.2344v-59.195c0-1.9648-0.77734-3.8477-2.168-5.2344-1.3867-1.3867-3.2695-2.168-5.2305-2.168h-59.199c-4.0859 0-7.3984 3.3125-7.3984 7.4023v59.199-0.003906c0 1.9648 0.77734 3.8438 2.168 5.2344 1.3867 1.3867 3.2695 2.168 5.2305 2.168h22.199v59.605-0.003907c-15.609 4.0781-30.559 10.359-44.398 18.648zm233.61-91.754-41.215-23.531v-12.578l88.797 50.762v12.578zm-56.016-23.531-41.215 23.531-47.582 27.207v-12.578l88.797-50.738zm-42.547 41.355 49.945-28.539 49.949 28.539 16.648 9.5078v207.69c-9.293-0.80469-19.105-1.4805-29.598-1.9102v-59.957c0.49609-9.7422-3.0664-19.254-9.8477-26.266-6.7773-7.0117-16.164-10.898-25.914-10.734-10.137 0.011718-19.855 4.0469-27.023 11.211-7.168 7.168-11.199 16.887-11.211 27.023v58.703c-10.492 0.44531-20.305 1.1016-29.598 1.9102l-0.003906-207.67zm72.145 214.81c-7.1562-0.17187-14.496-0.28906-22.199-0.28906s-15.043 0.11719-22.199 0.28906v-58.25c0.007813-6.2109 2.4766-12.168 6.8711-16.562 4.3945-4.3945 10.352-6.8672 16.566-6.8711 5.8281-0.16406 11.449 2.1641 15.453 6.4023 4.0039 4.2422 6.0078 9.9883 5.5078 15.797zm-22.199 14.512c8.2344 0 16.066 0.125 23.633 0.32422l11.523 51.473h-70.297l11.52-51.473c7.5586-0.19922 15.387-0.32422 23.621-0.32422zm-125.79-88.797h14.801v14.801h-14.801zm14.801-14.801-14.801 0.003906v-14.801h14.801zm-29.598 0-14.801 0.003906v-14.801h14.801zm-14.801 14.801h14.801v14.801h-14.801zm116.47 89.664-11.395 50.93h-146.82c7.8281-14.43 38.59-45.379 158.22-50.93zm89.242 50.93-11.395-50.93c119.55 5.5508 150.32 36.512 158.19 50.934zm90.277-140.59h14.801v14.801h-14.801zm14.801-14.801-14.801 0.003906v-14.801h14.801zm-29.598 0-14.805 0.003906v-14.801h14.801zm-14.801 14.801h14.801v14.801h-14.805zm73.992 107.85c-13.84-8.2891-28.789-14.57-44.395-18.648v-59.602h22.199-0.003906c1.9648 0 3.8477-0.78125 5.2344-2.168 1.3867-1.3906 2.168-3.2695 2.168-5.2344v-59.195c0-1.9648-0.78125-3.8477-2.168-5.2344-1.3867-1.3867-3.2695-2.168-5.2344-2.168h-59.195c-4.0859 0-7.3984 3.3125-7.3984 7.4023v59.199-0.003906c0 1.9648 0.77734 3.8438 2.1641 5.2344 1.3906 1.3867 3.2695 2.168 5.2344 2.168h22.199v55.883c-14.652-3.2578-29.477-5.707-44.398-7.3359v-144.75h103.59zm11.738-189.25h-115.33v-14.801h100.53zm-152.33-125.8c3.5391 0.011719 6.5781-2.5195 7.207-6 46.949 16.496 83.141 54.5 97.324 102.2h-67.531v-11.562l18.5 10.59v-0.003906c2.2891 1.3242 5.1133 1.3242 7.4062-0.003906 2.2891-1.3242 3.6992-3.7695 3.6914-6.418v-29.598c0.007812-2.6484-1.4062-5.0977-3.6992-6.4219l-99.895-57.066v-10.234c4.707 0.22266 9.3906 0.59766 14.059 1.2344l18.988 12.129c1.1797 0.75391 2.5508 1.1562 3.9492 1.1602zm-7.3984-20.902-29.598-18.891v-20.238l29.598 18.898zm-44.398 6.4141v10.199l-99.895 57.066c-2.2969 1.3242-3.707 3.7734-3.6992 6.4219v29.598c-0.007812 2.6484 1.4023 5.0938 3.6914 6.418 2.2891 1.3281 5.1133 1.3281 7.4062 0.003906l18.5-10.586v11.562h-67.441c9.082-30.895 27.602-58.18 52.965-78.027 25.363-19.848 56.297-31.266 88.473-32.656zm-174.53 125.48h100.53v14.801h-115.33z"/>
 </g>
</svg>
